<svg id="Layer_1" data-name="Layer 1" xmlns="http://www.w3.org/2000/svg" xmlns:xlink="http://www.w3.org/1999/xlink" viewBox="0 0 481.11 462.89"><defs><style>.cls-1,.cls-2,.cls-3,.cls-4{stroke-linecap:round;stroke-linejoin:round;stroke-width:5px;}.cls-1{fill:url(#linear-gradient);stroke:url(#linear-gradient-2);}.cls-2{fill:url(#linear-gradient-3);stroke:url(#linear-gradient-4);}.cls-3{fill:url(#linear-gradient-5);stroke:url(#linear-gradient-6);}.cls-4{fill:#13aa52;stroke:#13aa52;}</style><linearGradient id="linear-gradient" x1="433.01" y1="460.39" x2="433.01" y2="4.56" gradientUnits="userSpaceOnUse"><stop offset="0" stop-color="#13aa52"/><stop offset="1" stop-color="#21313c"/></linearGradient><linearGradient id="linear-gradient-2" x1="433.01" y1="462.89" x2="433.01" y2="2.06" xlink:href="#linear-gradient"/><linearGradient id="linear-gradient-3" x1="48.1" y1="460.39" x2="48.1" y2="4.56" xlink:href="#linear-gradient"/><linearGradient id="linear-gradient-4" x1="48.1" y1="462.89" x2="48.1" y2="2.06" xlink:href="#linear-gradient"/><linearGradient id="linear-gradient-5" x1="121.53" y1="2.5" x2="121.53" y2="460.39" xlink:href="#linear-gradient"/><linearGradient id="linear-gradient-6" x1="121.53" y1="0" x2="121.53" y2="462.89" xlink:href="#linear-gradient"/></defs><title>M</title><polygon class="cls-1" points="387.4 223.51 387.4 460.39 478.61 460.39 478.61 4.56 387.4 223.51"/><polygon class="cls-2" points="2.5 4.56 2.5 460.39 93.71 460.39 93.71 223.51 2.5 4.56"/><polygon class="cls-3" points="240.55 350.81 93.71 2.5 2.5 2.5 193.24 460.39 240.55 350.81"/><polygon class="cls-4" points="478.61 2.5 387.4 2.5 194.35 460.39 287.87 460.39 478.61 2.5"/></svg>